<?xml version="1.0" encoding="utf-8"?>
<!-- Generator: Adobe Illustrator 26.2.1, SVG Export Plug-In . SVG Version: 6.00 Build 0)  -->
<svg version="1.1" id="Layer_1" xmlns="http://www.w3.org/2000/svg" xmlns:xlink="http://www.w3.org/1999/xlink" x="0px" y="0px"
	 viewBox="0 0 960 960" style="enable-background:new 0 0 960 960;" xml:space="preserve">
<style type="text/css">
	.st0{fill-rule:evenodd;clip-rule:evenodd;}
</style>
<path class="st0" d="M0,596.8l0.6-220.9h65v152.2l148.4,0.3c0,0,60.1-24.4,60.1-86.7c0-62.6-50.3-83.1-70.7-83.1
	c-20.2,0-121.8,0.3-121.8,0.3v-70l142.9-0.3c0,0,80.2,10.5,102.3,108.3c22,97.9-47.1,200-116.3,200H0V596.8z M959.2,505.4L810.7,506
	c0,0-2.2,46.3,48.3,47.8c50.3,1.5,53.7-32.2,53.7-32.2h45.8c0,0-1.8,15.5-13.7,32.2c-15.9,22.4-51.8,48.3-98.9,42.4
	c-123.6-15.9-107-189.5,9.3-200.9C890,391.9,969,417.2,959.2,505.4 M915.1,488.4c0,0-3.2-33.4-40.3-41.8
	c-37.1-8.4-64.2,19.5-64.2,41.8H915.1z M609.8,395.6l42.4,132.4l46.1-132.4h55.1L647.6,671.5h-49.3l26.4-87.7l-64.1-188.2
	L609.8,395.6L609.8,395.6z M543.4,505.4L395.2,506c0,0-2.2,46.3,48.1,47.8c50.5,1.5,53.9-32.2,53.9-32.2H543c0,0-1.5,15.5-13.4,32.2
	c-16.2,22.4-52.1,48.3-99.1,42.4c-123.6-15.9-107.2-189.5,9.3-200.9C474.1,391.9,553.3,417.2,543.4,505.4 M499.5,488.4
	c0,0-3.5-33.4-40.6-41.8c-37.1-8.4-63.9,19.5-63.9,41.8H499.5z"/>
<rect x="0.4" y="289" class="st0" width="65" height="69"/>
</svg>
