<?xml version="1.0" encoding="utf-8"?>
<!-- Generator: Adobe Illustrator 26.2.1, SVG Export Plug-In . SVG Version: 6.00 Build 0)  -->
<svg version="1.1" id="Layer_1" xmlns="http://www.w3.org/2000/svg" xmlns:xlink="http://www.w3.org/1999/xlink" x="0px" y="0px"
	 viewBox="0 0 960 960" style="enable-background:new 0 0 960 960;" xml:space="preserve">
<g>
	<path d="M281.1,812.7l-266,122.5l96.9-611.6l212.5-98.4L480,330.5l33.3-25.8c5.1,11.4,10.7,22.2,16.6,32.1l-50,37.4l-158.2-107
		l-177,81.1L61.3,874.7l223.4-103L480,905l195.3-133.3l223.4,103l-69.8-453.5c9.4-12.1,19.4-25.4,30.2-40.3l85.7,554.4l-266-122.5
		L480,947.9L281.1,812.7z"/>
	<path d="M569,338c35.1,48.4,98.3,129.6,126.4,165.5c7,9.4,21.1,9.4,28.9,0c29.7-35.9,86.6-114,124.1-165.5
		c28.9-39,46.8-85.1,50.7-133.5c0.8-4.7,0.8-9.4,0.8-13.3C899.9,86.6,815.6,1.6,711,0h-2.3l0,0h-2.3
		C602.5,0.8,517.5,86.6,517.5,191.2c0,3.9,0,8.6,0.8,13.3C522.1,252.9,540.9,298.9,569,338z M708.7,80.4
		c67.1,0,120.2,53.1,120.2,120.2s-53.1,120.2-120.2,120.2s-120.2-53.1-120.2-120.2S641.6,80.4,708.7,80.4z"/>
</g>
</svg>
