<?xml version="1.0" encoding="utf-8"?>
<!-- Generator: Adobe Illustrator 26.2.1, SVG Export Plug-In . SVG Version: 6.00 Build 0)  -->
<svg version="1.1" id="Layer_1" xmlns="http://www.w3.org/2000/svg" xmlns:xlink="http://www.w3.org/1999/xlink" x="0px" y="0px"
	 viewBox="0 0 960 960" style="enable-background:new 0 0 960 960;" xml:space="preserve">
<g id="se.cohen.renaultze_x2F_capabilities_x2F_charging">
	<path id="Combined-Shape" d="M557,21c26.5,0,48,21.5,48,48l0,0v32h12c35,0,63.4,28.1,64,62.9l0,0v1.1v711c0,35.3-28.7,64-64,64l0,0
		H343c-35.3,0-64-28.7-64-64l0,0V165c0-35.3,28.7-64,64-64l0,0h12V69c0-26.2,21.1-47.6,47.2-48l0,0H557z M343,141
		c-13.3,0-24,10.7-24,24l0,0v711c0,13.3,10.7,24,24,24l0,0h274c13.3,0,24-10.7,24-24l0,0V165c0-13.3-10.7-24-24-24l0,0H343z M557,61
		H403c-4.4,0-8,3.6-8,8l0,0v32h170V69c0-4.3-3.4-7.9-7.8-8H557z"/>
</g>
<path d="M620.5,858.6c0,12.6-9.4,22.7-21,22.7h-240c-11.6,0-21-10.2-21-22.7V347.1c0-12.6,9.4-22.7,21-22.7h240
	c11.6,0,21,10.2,21,22.7V858.6z"/>
</svg>
