<?xml version="1.0" encoding="utf-8"?>
<!-- Generator: Adobe Illustrator 26.2.1, SVG Export Plug-In . SVG Version: 6.00 Build 0)  -->
<svg version="1.1" id="Layer_1" xmlns="http://www.w3.org/2000/svg" xmlns:xlink="http://www.w3.org/1999/xlink" x="0px" y="0px"
	 viewBox="0 0 960 960" style="enable-background:new 0 0 960 960;" xml:space="preserve">
<style type="text/css">
	.st0{fill-rule:evenodd;clip-rule:evenodd;}
</style>
<g>
	<path d="M494.7,900H255.9c-13.3,0-24-10.7-24-24V165c0-13.3,10.7-24,24-24h274c13.3,0,24,10.7,24,24v210.9
		c9.7-15.3,23.6-27.6,40-35.4V165v-1.1c-0.6-34.8-29-62.9-64-62.9h-12V69c0-26.5-21.5-48-48-48H315.1c-26.1,0.4-47.2,21.8-47.2,48
		v32h-12c-35.3,0-64,28.7-64,64v711c0,35.3,28.7,64,64,64h271C514.3,928.4,503.4,914.9,494.7,900z M307.9,69c0-4.4,3.6-8,8-8h154
		h0.2c4.4,0.1,7.8,3.7,7.8,8v32h-170V69z"/>
	<g id="measure_dewpoint" transform="translate(-89.000000, -15.000000)">
		<g transform="translate(89.598000, 15.598000)">
			<path id="Stroke-16" d="M711.3,440.4c0-39.2-32-71.2-71-71.2c-39.1,0-71,32-71,71.2V707c-34.6,23.4-55.9,62.6-55.9,105.3
				c0,70.2,56.8,127.1,127.1,127.1c70.1,0,127.1-56.9,127.1-127.1c0-42.9-21.3-81.9-55.9-105.3V440.4H711.3z M685.1,714.1
				c0,4.6,2.4,8.9,6.4,11.3c30.5,18.1,49.5,50.8,49.5,86.8c0,55.7-45.1,100.8-100.7,100.8c-55.7,0-100.7-45.1-100.7-100.8
				c0-36.1,19-68.7,49.5-86.8c4-2.4,6.4-6.6,6.4-11.3V440.3c0-24.6,20.2-44.8,44.8-44.8s44.8,20.2,44.8,44.8V714.1z"/>
			<path id="Fill-18" class="st0" d="M660,739.7V575.2h-40.1v164.5c-32.7,8.8-56.7,38.5-56.7,73.9c0,42.3,34.4,76.5,76.8,76.5
				c42.4,0,76.8-34.3,76.8-76.5C716.7,778.2,692.6,748.4,660,739.7"/>
		</g>
	</g>
	<path d="M471.9,815.1c0-51.6,23.3-99.2,62-130.9V345c0-12.5-9.4-22.7-21-22.7h-240c-11.6,0-21,10.1-21,22.7v511.5
		c0,12.5,9.4,22.7,21,22.7h211.6C476.4,859.5,471.9,837.8,471.9,815.1z"/>
</g>
</svg>
