<?xml version="1.0" encoding="utf-8"?>
<!-- Generator: Adobe Illustrator 26.2.1, SVG Export Plug-In . SVG Version: 6.00 Build 0)  -->
<svg version="1.1" id="Layer_1" xmlns="http://www.w3.org/2000/svg" xmlns:xlink="http://www.w3.org/1999/xlink" x="0px" y="0px"
	 viewBox="0 0 960 960" style="enable-background:new 0 0 960 960;" xml:space="preserve">
<path d="M681,163.4c-0.6-34.9-29-62.9-64-62.9h-12v-32c0-26.5-21.5-48-48-48H402.2c-26.1,0.4-47.2,21.8-47.2,48v32h-12
	c-35.3,0-64,28.7-64,64v711c0,35.3,28.7,64,64,64h274c35.3,0,64-28.7,64-64v-711V163.4z M395,68.5c0-4.4,3.6-8,8-8h154h0.2
	c4.3,0.1,7.8,3.7,7.8,8v32H395V68.5z M641,875.5c0,13.3-10.7,24-24,24H343c-13.3,0-24-10.7-24-24v-711c0-13.3,10.7-24,24-24h274
	c13.3,0,24,10.7,24,24V875.5z"/>
<path d="M621,677.8c0,12.6-9.4,22.7-21,22.7H360c-11.6,0-21-10.2-21-22.7v-23.5c0-12.6,9.4-22.7,21-22.7h240c11.6,0,21,10.2,21,22.7
	V677.8z"/>
<path d="M621,587.8c0,12.6-9.4,22.7-21,22.7H360c-11.6,0-21-10.2-21-22.7v-23.5c0-12.6,9.4-22.7,21-22.7h240c11.6,0,21,10.2,21,22.7
	V587.8z"/>
<path d="M575.4,343.5l-83.7,83.7L480,438.9h-0.1l-11.8-11.8l-83.6-83.6v-0.1l23.6-23.6h0.1l55,55h0.1v-110c0-9.4,7.8-17,17.3-16.7
	c9.1,0.3,16.1,8.1,16.1,17.1v109.6c0,0.1,0.1,0.1,0.1,0l55-55h0.1"/>
<path d="M621,857.8c0,12.6-9.4,22.7-21,22.7H360c-11.6,0-21-10.2-21-22.7v-23.5c0-12.6,9.4-22.7,21-22.7h240c11.6,0,21,10.2,21,22.7
	V857.8z"/>
<path d="M621,767.8c0,12.6-9.4,22.7-21,22.7H360c-11.6,0-21-10.2-21-22.7v-23.5c0-12.6,9.4-22.7,21-22.7h240c11.6,0,21,10.2,21,22.7
	V767.8z"/>
</svg>
