<?xml version="1.0" encoding="utf-8"?>
<!-- Generator: Adobe Illustrator 26.2.1, SVG Export Plug-In . SVG Version: 6.00 Build 0)  -->
<svg version="1.1" id="Capa_1" xmlns="http://www.w3.org/2000/svg" xmlns:xlink="http://www.w3.org/1999/xlink" x="0px" y="0px"
	 viewBox="0 0 960 960" style="enable-background:new 0 0 960 960;" xml:space="preserve">
<path d="M413.9,704.2c0.7,0.4,1.4,0.8,2.1,1.2V760H92.6C41.5,760,0,718.5,0,667.4v-510c0-51.1,41.5-92.6,92.6-92.6h54.2V34.3
	c0-18.9,15.4-34.3,34.3-34.3h12.5c18.9,0,34.3,15.4,34.3,34.3v30.5h239.9V34.3c0-18.9,15.4-34.3,34.3-34.3h12.5
	c18.9,0,34.3,15.4,34.3,34.3v30.5h40.4c51.1,0,92.6,41.5,92.6,92.6v281c-0.1,0-0.3,0-0.3,0c-14.8,0-29,5.2-40.2,14.5l-15.2,9.5v-305
	c0-20.3-16.5-36.8-36.8-36.8H549v43.8c0,18.9-15.4,34.3-34.3,34.3h-12.5c-18.9,0-34.3-15.4-34.3-34.3v-43.8h-240v43.8
	c0,18.9-15.4,34.3-34.3,34.3h-12.5c-18.9,0-34.3-15.4-34.3-34.3v-43.8H92.6c-20.3,0-36.8,16.5-36.8,36.8v510
	c0,20.3,16.5,36.8,36.8,36.8H413.9z M931.5,917.5c0,7.2-5.7,12.9-12.8,13.1h-0.2H445.6c-7.2,0-13.1-5.8-13.1-13.1
	c0-7.2,5.7-12.9,12.8-13.1h0.2h20.4v-252l-13.4,8.4c-6.1,3.8-14.1,2-18-4.1c-3.8-6.1-2-14,4-17.9l0.2-0.1l233.1-145.8
	c2.7-3,6.5-4.6,10.3-4.4c3.9-0.2,7.7,1.4,10.3,4.4l233,145.8l0.2,0.1c6,3.9,7.7,11.8,4,17.9c-3.8,6.1-11.7,7.9-17.8,4.3l-0.2-0.1
	l-12.3-7.8v251.4h19.3C925.7,904.4,931.5,910.3,931.5,917.5z M745,704c-1.5-2.6-4.3-4.1-7.3-4.1h-45.5l10.7-91.5
	c0.1-1.2-0.2-2.5-1.1-3.5s-2-1.5-3.3-1.5h-0.2c-1.7,0-3.2,0.9-3.9,2.3l-75.5,140.6c-1.4,2.7-1.3,5.7,0.2,8.3s4.3,4.1,7.3,4.1h45.5
	l-10.7,91.5c-0.1,1.2,0.2,2.5,1.1,3.5c0.8,0.9,2,1.5,3.3,1.5h0.2c1.7,0,3.2-0.9,3.9-2.3l75.4-140.6C746.6,709.7,746.5,706.6,745,704
	z M326,555.7h65.4c-1.8-14.7-2.4-27.3-2.4-45.3V353.2c0-19.8,0.6-32.4,2.1-48.3c-12,1.2-15.9,1.2-37.2,1.2h-38.1
	c-17.4,0-25.2-0.3-36-2.1v55.5c13.2-1.5,24.9-2.1,36.6-2.1h12v153C328.4,527.8,327.8,541.9,326,555.7z"/>
</svg>
