<?xml version="1.0" encoding="utf-8"?>
<!-- Generator: Adobe Illustrator 26.2.1, SVG Export Plug-In . SVG Version: 6.00 Build 0)  -->
<svg version="1.1" id="Capa_1" xmlns="http://www.w3.org/2000/svg" xmlns:xlink="http://www.w3.org/1999/xlink" x="0px" y="0px"
	 viewBox="0 0 960 960" style="enable-background:new 0 0 960 960;" xml:space="preserve">
<path d="M448.5,476.8l-0.8,0.8c0,0-0.1,0-0.1,0l-81.8-81.8c0,0-0.1,0-0.1,0v163c0,13.5-10.5,25.1-24,25.5
	c-14.1,0.5-25.7-10.8-25.7-24.9V395.9c0-0.1-0.1-0.1-0.1,0l-81.8,81.8c0,0-0.1,0-0.1,0L199,442.5c0,0,0-0.1,0-0.1l124.3-124.3
	l17.5-17.5c0,0,0.1,0,0.1,0l17.5,17.5l117.3,117.3c-15.7,4.6-27.2,19.1-27.2,36.3V476.8z M570.1,704.2H92.6
	c-20.3,0-36.8-16.5-36.8-36.8v-510c0-20.3,16.5-36.8,36.8-36.8h54.2v43.8c0,18.9,15.4,34.3,34.3,34.3h12.5
	c18.9,0,34.3-15.4,34.3-34.3v-43.8h239.9v43.8c0,18.9,15.4,34.3,34.3,34.3h12.5c18.9,0,34.3-15.4,34.3-34.3v-43.8h40.4
	c20.3,0,36.8,16.5,36.8,36.8l0,183.3c0,0-0.8,0.3,21.5,0.3c0.4,0,33.9-127,34.3-127v-56.7c0-51.1-41.5-92.6-92.6-92.6h-40.4V34.3
	c0-18.9-15.4-34.3-34.3-34.3h-12.5c-18.9,0-34.3,15.4-34.3,34.3v30.5H227.9V34.3c0-18.9-15.4-34.3-34.3-34.3h-12.5
	c-18.9,0-34.3,15.4-34.3,34.3v30.5H92.6C41.5,64.8,0,106.3,0,157.4v510C0,718.5,41.5,760,92.6,760h459L570.1,704.2z M938.1,482.6
	l-19.6,6.8c-3.8,10-8.5,18.6-13.8,25.9c-5.6,7.6-11.6,13.5-17.7,17.8c-3.8,2.7-6.9,4.3-8.9,5.1c-2.9,1.1-6.4,0.2-7.8-2
	c-1.4-2.2-0.3-4.8,2.6-5.8c0.1-0.1,0.6-0.3,1.4-0.7c1.4-0.7,3-1.7,4.8-3c5.2-3.7,10.5-8.8,15.5-15.6c3.6-4.9,6.9-10.5,9.8-16.7
	l-136.9,47.3l4.2,26.4h106.6c13.8,0,18.8,13.6,7,19l-8.6,3.9c-3.9,10.3-8.7,19.2-14.2,26.8c-5.6,7.6-11.6,13.5-17.7,17.8
	c-3.8,2.7-6.9,4.3-8.9,5.1c-2.9,1.1-6.4,0.2-7.8-2c-1.4-2.2-0.3-4.8,2.6-5.8c0.1-0.1,0.6-0.3,1.4-0.7c1.4-0.7,3-1.7,4.8-3
	c5.2-3.7,10.5-8.8,15.5-15.6c3.4-4.8,6.5-10,9.3-15.8L782,633.9l0.3,1.5l80.8,244.4l1.2,1.4h-0.7l15.4,46.4
	c2.3,7-3.3,14.2-12.7,15.9s-18.8-2.6-21.2-9.6l-17.5-52.8H593.6l-17.5,52.8c-2.3,7-11.8,11.4-21.2,9.6c-9.4-1.8-15.1-8.9-12.7-15.9
	l96.5-292.1L561,596.9c2.9,6.2,6.1,11.7,9.7,16.6c5,6.8,10.3,11.9,15.5,15.6c1.8,1.2,3.3,2.2,4.8,3c0.8,0.4,1.2,0.6,1.4,0.7
	c2.9,1.1,4,3.7,2.6,5.8c-1.4,2.1-4.9,3-7.8,2c-2-0.8-5.1-2.4-8.9-5.1c-6.1-4.3-12.1-10.2-17.7-17.8c-5.8-7.9-10.8-17.4-14.8-28.4
	l-5.8-2.9c-11.2-5.6-6-18.7,7.5-18.7h102l4.3-26.7l-134.3-45.1c2.7,5.6,5.7,10.7,9.1,15.2c5,6.8,10.3,11.9,15.5,15.6
	c1.8,1.2,3.3,2.2,4.8,3c0.8,0.4,1.2,0.6,1.4,0.7c2.9,1.1,4,3.7,2.6,5.8c-1.4,2.1-4.9,3-7.8,2c-2-0.8-5.1-2.4-8.9-5.1
	c-6.1-4.3-12.1-10.2-17.7-17.8c-5.1-7-9.5-15-13.2-24.2l-17.5-5.8c-13.4-4.5-9.1-19.6,5.6-19.6h172.6l3.1-19.2l-60.1-32.5
	c1.5,2.5,3.1,4.9,4.7,7.2c5,6.8,10.3,11.9,15.5,15.6c1.8,1.2,3.3,2.2,4.8,3c0.8,0.4,1.2,0.6,1.4,0.7c2.9,1.1,4,3.7,2.6,5.8
	c-1.4,2.1-4.9,3-7.8,2c-2-0.8-5.1-2.4-8.9-5.1c-6.1-4.3-12.1-10.2-17.7-17.8c-4.4-6-8.3-12.9-11.7-20.7l-9.3-5
	c-10.7-5.8-5.2-18.5,7.9-18.5h90.2l12.9-56.2c3.3-14.5,31.1-14.5,34.5,0l13,56.6h91.1c0.1,0,0.1,0,0.3,0h3.3
	c13.5,0,18.8,13.2,7.4,18.8l-12.2,6c-3.2,7.1-6.9,13.5-11,19c-5.6,7.6-11.6,13.5-17.7,17.8c-3.8,2.7-6.9,4.3-8.9,5.1
	c-2.9,1.1-6.4,0.2-7.8-2c-1.4-2.2-0.3-4.8,2.6-5.8c0.1-0.1,0.6-0.3,1.4-0.7c1.4-0.7,3-1.7,4.8-3c5.2-3.7,10.5-8.8,15.5-15.6
	c1.5-2.1,3-4.3,4.4-6.6l-61.9,30.4l2.9,18.2h177.6C947,463.1,951.3,478,938.1,482.6z M746.7,402.6l1.7,10.2l2.6,8.2l39.7-18.4H746.7
	z M672.7,647.4l-0.8,2.3l40.2,48.2l38.6-46.3l-1.4-4.3H672.7z M741.4,635.6l-26.9-13.1l-26.9,13.1H741.4z M743.9,604.1l-15.6,8.5
	l18.4,9.9L743.9,604.1z M733.3,553.5l-7.6,4.2l9.2,5L733.3,553.5z M727.8,512.2l-2.1,3l2.6,3.6L727.8,512.2z M708.6,427l5,3.8
	l1.6-1.2l-3.5-21.1L708.6,427z M706,452.5l7.3,6.6l5.8-5.2l-0.5-3.1l-5.3-4.8L706,452.5z M701.7,467.6l0.7-0.8l-0.5-0.6L701.7,467.6
	z M696.8,495.7l16.2,10.6l12.7-8.3l-2.4-15.1l-10.2-8.1l-14.7,11.6L696.8,495.7z M694.2,522l9.2-5.1l-7.4-4.1L694.2,522z
	 M690.2,538.6l21.3,11.6l19.4-10.6l-0.5-2.6l-18.9-11.8L690.2,538.6z M683.7,566l15.7-8.6l-13.1-7.2L683.7,566z M681.1,590.3
	l31.7,16.4l28-14.5l-2.2-14.3l-25.9-15.2l-30.1,17.7L681.1,590.3z M677.1,626.4l22.3-12.1l-19-10.2L677.1,626.4z M674.3,424.3
	l3.5-22.3h-44L674.3,424.3z M659.9,522l5.4-34.8h-107L659.9,522z M642.3,613.2l3.9-24.9h-53.8L642.3,613.2z M618.1,811.4l85.3-103.3
	l-36.5-44.3L618.1,811.4z M817.6,846.2l-103.9-126L605.9,850.9l-6.9,20.9h227L817.6,846.2z M775.5,590.9l3.4,22.3l50.4-22.3H775.5z
	 M756.9,666.4l-35.2,42.5l82,99.2L756.9,666.4z M873.3,484H759.8l7.8,34.8L873.3,484z"/>
</svg>
