<?xml version="1.0" encoding="utf-8"?>
<!-- Generator: Adobe Illustrator 26.2.1, SVG Export Plug-In . SVG Version: 6.00 Build 0)  -->
<svg version="1.1" id="Capa_1" xmlns="http://www.w3.org/2000/svg" xmlns:xlink="http://www.w3.org/1999/xlink" x="0px" y="0px"
	 viewBox="0 0 960 960" style="enable-background:new 0 0 960 960;" xml:space="preserve">
<path d="M268.8,760H92.6C41.5,760,0,718.5,0,667.4v-510c0-51.1,41.5-92.6,92.6-92.6h54.2V34.3c0-18.9,15.4-34.3,34.3-34.3h12.5
	c18.9,0,34.3,15.4,34.3,34.3v30.5h239.9V34.3c0-18.9,15.4-34.3,34.3-34.3h12.5c18.9,0,34.3,15.4,34.3,34.3v30.5h40.4
	c51.1,0,92.6,41.5,92.6,92.6v355.8h-55.8V157.4c0-20.3-16.5-36.8-36.8-36.8h-40.4v43.8c0,18.9-15.4,34.3-34.3,34.3h-12.5
	c-18.9,0-34.3-15.4-34.3-34.3v-43.8H227.9v43.8c0,18.9-15.4,34.3-34.3,34.3h-12.5c-18.9,0-34.3-15.4-34.3-34.3v-43.8H92.6
	c-20.3,0-36.8,16.5-36.8,36.8v510c0,20.3,16.5,36.8,36.8,36.8h209L268.8,760z M947.8,598.9L786.5,937.5
	c-5.4,11.3-16.9,18.5-29.4,18.5l0,0c-1.2,0-2.5-0.1-3.7-0.2l-455.6-52.7c-15.8-1.8-27.8-14.6-28.7-30.5l-0.9-15.3
	c-0.4-6.4,1.2-12.7,4.4-18.2l161.6-277.3c5.8-10,16.6-16.2,28.1-16.2h0.5l456.1,6.8c11.1,0.2,21.3,5.9,27.1,15.4
	C952,577.2,952.6,588.8,947.8,598.9z M668.2,585.5L640.7,638l91.6,4l27.4-55L668.2,585.5z M480.5,726.5L452,776.9l85.9,7.4
	l27.8-52.8L480.5,726.5z M577.3,709.3l26.4-50.1l-82.9-3.6l-27.7,48.8L577.3,709.3z M439.6,798.8l-31.8,56l87.8,9.9l30.8-58.5
	L439.6,798.8z M519.9,867.5l94.6,10.7l30.7-61.7l-94.2-8.1L519.9,867.5z M656.2,794.5l28-56.1l-93.5-5.4l-28.1,53.5L656.2,794.5z
	 M695.2,716.2l25.9-51.9l-92.2-4l-26.6,50.5L695.2,716.2z M561.4,584l-28,49.3l82,3.6l27.2-51.7L561.4,584z M437.6,629.1l70.2,3
	l27.6-48.6l-70.6-1.1L437.6,629.1z M397,698.8l70.7,4.1l27.5-48.5l-70.5-3.1L397,698.8z M356.3,768.7l70.6,6.1l28.2-49.7l-71-4.1
	L356.3,768.7z M312.4,844l70.7,8l31.4-55.4l-71-6.1L312.4,844z M740.9,924.8l-0.4-9.5l-434.8-49.2v8.3L740.9,924.8z M776.3,827.8
	l-106.6-9.2l-31,62.3L745.3,893L776.3,827.8z M815.2,746l-106.3-6.2l-28.3,56.8l106.1,9.2L815.2,746z M851.5,669.9L746,665.4
	l-26,52.3l105.8,6.2L851.5,669.9z M890.1,588.9L785,587.3L757.2,643l105,4.6L890.1,588.9z M279.8,359.5c13.2-1.5,24.9-2.1,36.6-2.1
	h12v153c0,17.4-0.6,31.5-2.4,45.3h65.4c-1.8-14.7-2.4-27.3-2.4-45.3V353.2c0-19.8,0.6-32.4,2.1-48.3c-12,1.2-15.9,1.2-37.2,1.2
	h-38.1c-17.4,0-25.2-0.3-36-2.1V359.5z"/>
</svg>
