<?xml version="1.0" encoding="utf-8"?>
<!-- Generator: Adobe Illustrator 26.2.1, SVG Export Plug-In . SVG Version: 6.00 Build 0)  -->
<svg version="1.1" id="Layer_1" xmlns="http://www.w3.org/2000/svg" xmlns:xlink="http://www.w3.org/1999/xlink" x="0px" y="0px"
	 viewBox="0 0 960 960" style="enable-background:new 0 0 960 960;" xml:space="preserve">
<path d="M946,167.5H747.6l-3.2-20.4l69.1-33.9c-1.6,2.6-3.2,5-4.9,7.3c-5.6,7.6-11.4,13.3-17.3,17.4c-2,1.4-3.7,2.5-5.3,3.3
	c-0.9,0.4-1.4,0.7-1.5,0.7c-3.2,1.2-4.5,4.1-2.9,6.5c1.6,2.4,5.5,3.4,8.7,2.2c2.3-0.8,5.7-2.6,10-5.6c6.8-4.8,13.6-11.4,19.8-19.9
	c4.6-6.2,8.7-13.3,12.3-21.2l13.6-6.7c12.7-6.2,6.8-21-8.3-21h-3.7c-0.1,0-0.2,0-0.3,0H732l-14.5-63.2C713.7-3,682.7-3,679,13.2
	l-14.4,62.7H563.9c-14.7,0-20.8,14.2-8.9,20.7l10.3,5.6c3.8,8.7,8.2,16.3,13.1,23.1c6.2,8.5,13,15,19.8,19.9c4.2,3,7.7,4.8,10,5.6
	c3.2,1.2,7.1,0.1,8.7-2.2c1.6-2.3,0.4-5.3-2.9-6.5c-0.1-0.1-0.7-0.3-1.5-0.7c-1.6-0.8-3.4-1.9-5.3-3.3c-5.8-4.1-11.7-9.8-17.3-17.4
	c-1.8-2.6-3.6-5.2-5.3-8l67.1,36.3l-3.4,21.5H455.5c-16.4,0-21.2,16.8-6.2,21.8l19.5,6.5c4.1,10.3,9.1,19.3,14.7,27
	c6.2,8.5,13,15,19.8,19.9c4.2,3,7.7,4.8,10,5.6c3.2,1.2,7.1,0.1,8.7-2.2c1.6-2.3,0.4-5.3-2.9-6.5c-0.1-0.1-0.7-0.3-1.5-0.7
	c-1.6-0.8-3.4-1.9-5.3-3.3c-5.8-4.1-11.7-9.8-17.3-17.4c-3.7-5-7.1-10.6-10.1-16.9l150,50.3l-4.8,29.8H516.1
	c-15,0-20.9,14.7-8.4,20.9l6.4,3.2c4.4,12.3,10,22.9,16.5,31.7c6.2,8.5,13,15,19.8,19.9c4.2,3,7.7,4.8,10,5.6
	c3.2,1.2,7.1,0.1,8.7-2.2s0.4-5.3-2.9-6.5c-0.1-0.1-0.7-0.3-1.5-0.7c-1.6-0.8-3.4-1.9-5.3-3.3c-5.8-4.1-11.7-9.8-17.3-17.4
	c-4-5.5-7.6-11.6-10.8-18.5L618,360L595,429.8l13.5-0.2c0.3,0,0.6,0,0.9,0h0c9,0,17.7,2,25.6,5.7l14.5-43.8l40.8,49.5l-23.1,28
	l9.4,16.2l25.3-30.6l116,140.7l9.5,28.6h-69.9l6.1,10.4h65.5l19.5,58.9c2.6,7.8,13.2,12.6,23.7,10.7c10.5-1.9,16.8-9.9,14.2-17.7
	l-17.1-51.8h0.8l-1.3-1.6l-90.2-272.9l-0.3-1.7l88.7-40.3c-3.1,6.5-6.5,12.3-10.4,17.7c-5.6,7.6-11.4,13.3-17.3,17.4
	c-2,1.4-3.7,2.5-5.3,3.3c-0.9,0.4-1.4,0.7-1.5,0.7c-3.2,1.2-4.5,4.1-2.9,6.5c1.6,2.4,5.5,3.4,8.7,2.2c2.3-0.8,5.7-2.6,10-5.6
	c6.8-4.8,13.6-11.4,19.8-19.9c6.2-8.4,11.5-18.4,15.8-29.9l9.6-4.4c13.1-6,7.5-21.2-7.8-21.2H766.4l-4.7-29.5l152.8-52.8
	c-3.2,7-6.9,13.2-10.9,18.7c-5.6,7.6-11.4,13.3-17.3,17.4c-2,1.4-3.7,2.5-5.3,3.3c-0.9,0.4-1.4,0.7-1.5,0.7
	c-3.2,1.2-4.5,4.1-2.9,6.5c1.6,2.4,5.5,3.4,8.7,2.2c2.3-0.8,5.7-2.6,10-5.6c6.8-4.8,13.6-11.4,19.8-19.9c6-8.2,11.2-17.8,15.5-28.9
	l21.8-7.6C967.1,184.1,962.2,167.5,946,167.5z M622,335.1l-55.7-27.8h60.1L622,335.1z M641.6,233.3l-113.3-38.8h119.4L641.6,233.3z
	 M787.6,99.9l-44.3,20.5l-2.9-9.2l-1.9-11.4H787.6z M738.5,345.4L718,334.3l17.4-9.5L738.5,345.4z M732.7,360h-60.1l30-14.7
	L732.7,360z M725.4,278.7l-10.3-5.6l8.5-4.7L725.4,278.7z M718,229.6l-2.9-4l2.3-3.3L718,229.6z M699.5,106.5l3.9,23.6l-1.8,1.3
	l-5.6-4.2L699.5,106.5z M701.3,148.3l5.9,5.3l0.5,3.5l-6.4,5.8l-8.2-7.3L701.3,148.3z M688.5,171l0.6,0.7l-0.8,0.9L688.5,171z
	 M684.5,193.5l16.4-13l11.4,9.1l2.7,16.9l-14.1,9.2l-18.1-11.8L684.5,193.5z M681.9,223l8.3,4.6l-10.3,5.6L681.9,223z M699.3,236.9
	l21.1,13.2l0.5,2.9l-21.6,11.8l-23.8-13L699.3,236.9z M671.1,264.8l14.7,8l-17.6,9.6L671.1,264.8z M667,298.5l33.6-19.8l28.9,16.9
	l2.5,16l-31.3,16.2l-35.4-18.3L667,298.5z M664.6,324.9l21.2,11.4l-24.9,13.5L664.6,324.9z M612.5,99.2h49.1l-3.9,24.9L612.5,99.2z
	 M699.9,429.6L655,375.8l0.9-2.6h85.4l1.6,4.8L699.9,429.6z M830.9,310.2l-56.3,24.9l-3.8-24.9H830.9z M802.3,552.7l-91.6-110.8
	l39.3-47.5L802.3,552.7z M762,229.6l-8.7-38.8H880L762,229.6z"/>
<g>
	<path d="M608.8,454.6c12.8-0.2,24.7,6.5,31.1,17.6l203.3,348.9c3.5,6,5.2,12.9,4.8,19.8l-1.1,19.3c-1,17.2-14.2,31.2-31.3,33.2
		l-573.2,66.3c-15.1,1.7-29.5-6.3-36.1-20L3.5,513.8c-11.1-23.3,5.6-50.3,31.5-50.7L608.8,454.6z M812.3,846.3l-557.5,63.1
		l-2.9,13.7l559.7-64.8L812.3,846.3z M43,498.5l-7.5,0.1L235,917.4l2.4-11.1c-0.2-0.3-0.4-0.6-0.5-0.9l-99.6-209L43,498.5z
		 M351.7,786.8L206,799.4l18.5,38.8l25.5,53.6l0.1,0.3l145.8-16.5L351.7,786.8z M500.9,773.9l-130.3,11.2l44,88.3l130.8-14.8
		L500.9,773.9z M641,761.9l-120.9,10.4l44.3,84.2l122.5-13.9L641,761.9z M761.7,751.5l-101.3,8.7l45.5,80.3l100.9-11.4L761.7,751.5z
		 M302.4,687.8l-145.5,8.5l41,86l145.4-12.5L302.4,687.8z M451.1,679.2l-129.5,7.5l40.6,81.4L492,756.9L451.1,679.2z M589.5,671.1
		l-119,6.9l40.6,77.2l120.3-10.4L589.5,671.1z M710.8,664L609.3,670l41.6,73.3l101-8.7L710.8,664z M255.7,594.2l-144.5,6.3
		l37.6,78.8c0.6-0.2,1.3-0.3,2-0.3l143.1-8.3L255.7,594.2z M403,587.8l-127.9,5.5l37.9,76.1l129-7.5L403,587.8z M538.9,581.9
		l-116.4,5l38.9,73.9l118.4-6.9L538.9,581.9z M659.8,576.6l-101,4.4l40.7,71.7l101.3-5.9L659.8,576.6z M206.8,496l-144.3,2.1
		l40.4,84.9l144.2-6.3L206.8,496z M353.6,493.9l-127.1,1.9l40,80.2l127.4-5.5L353.6,493.9z M487.9,491.9l-114.4,1.7l40,76l115.7-5
		L487.9,491.9z M609.4,490.1l-101.3,1.5l40.9,72.2l100.8-4.4L609.4,490.1z"/>
</g>
</svg>
