<?xml version="1.0" encoding="utf-8"?>
<!-- Generator: Adobe Illustrator 26.2.1, SVG Export Plug-In . SVG Version: 6.00 Build 0)  -->
<svg version="1.1" id="Layer_1" xmlns="http://www.w3.org/2000/svg" xmlns:xlink="http://www.w3.org/1999/xlink" x="0px" y="0px"
	 viewBox="0 0 960 960" style="enable-background:new 0 0 960 960;" xml:space="preserve">
<path d="M706.6,432.5l-121.1,55l0.4,2.3L709,862.2l1.8,2.2h-1.1l23.4,70.7c3.5,10.7-5.1,21.6-19.4,24.2s-28.7-3.9-32.3-14.6
	l-26.6-80.4H298.3l-26.6,80.4c-3.5,10.7-18,17.3-32.3,14.6s-23-13.5-19.4-24.2L367.1,490l-118.4-58.9c4.4,9.4,9.3,17.8,14.8,25.3
	c7.6,10.4,15.7,18.2,23.6,23.8c2.7,1.9,5.1,3.4,7.3,4.5c1.2,0.6,1.9,0.9,2.1,1c4.4,1.7,6.1,5.7,3.9,8.9s-7.5,4.6-11.9,3
	c-3.1-1.2-7.8-3.6-13.6-7.7c-9.3-6.6-18.5-15.5-27-27.1c-8.9-12.1-16.5-26.5-22.5-43.3l-8.8-4.4c-17.1-8.5-9.1-28.5,11.4-28.5h155.5
	l6.5-40.7l-204.7-68.7c4.1,8.6,8.7,16.3,13.8,23.1c7.6,10.4,15.7,18.2,23.6,23.8c2.7,1.9,5.1,3.4,7.3,4.5c1.2,0.6,1.9,0.9,2.1,1
	c4.4,1.7,6.1,5.7,3.9,8.9s-7.5,4.6-11.9,3c-3.1-1.2-7.8-3.6-13.6-7.7c-9.3-6.6-18.5-15.5-27-27.1c-7.7-10.6-14.5-22.8-20.1-36.9
	l-26.6-8.9c-20.4-6.9-13.9-29.8,8.5-29.8h263.1l4.7-29.3l-91.6-49.6c2.3,3.8,4.7,7.4,7.2,10.9c7.6,10.4,15.7,18.2,23.6,23.8
	c2.7,1.9,5.1,3.4,7.3,4.5c1.2,0.6,1.9,0.9,2.1,1c4.4,1.7,6.1,5.7,3.9,8.9s-7.5,4.6-11.9,3c-3.1-1.2-7.8-3.6-13.6-7.7
	c-9.3-6.6-18.5-15.5-27-27.1c-6.7-9.2-12.7-19.6-17.9-31.5l-14.1-7.6c-16.3-8.8-8-28.2,12.1-28.2h137.4l19.7-85.6
	c5.1-22.1,47.4-22.1,52.5,0l19.8,86.2h138.8c0.1,0,0.2,0,0.4,0h5.1c20.6,0,28.6,20.1,11.3,28.6l-18.6,9.1
	c-4.9,10.8-10.5,20.5-16.8,29c-8.5,11.6-17.7,20.5-27,27.1c-5.8,4.1-10.5,6.6-13.6,7.7c-4.4,1.7-9.7,0.3-11.9-3s-0.4-7.3,3.9-8.9
	c0.2-0.1,0.9-0.4,2.1-1c2.2-1.1,4.6-2.6,7.3-4.5c8-5.6,16-13.4,23.6-23.8c2.3-3.2,4.5-6.5,6.7-10l-94.3,46.3l4.4,27.8h270.7
	c22.2,0,28.8,22.7,8.7,29.7l-29.8,10.4c-5.8,15.2-12.9,28.3-21.1,39.5c-8.5,11.6-17.7,20.5-27,27.1c-5.8,4.1-10.5,6.6-13.6,7.7
	c-4.4,1.7-9.7,0.3-11.9-3s-0.4-7.3,3.9-8.9c0.2-0.1,0.9-0.4,2.1-1c2.2-1.1,4.6-2.6,7.3-4.5c8-5.6,16-13.4,23.6-23.8
	c5.5-7.5,10.5-16,14.9-25.5L563.2,347l6.4,40.3h162.5c21,0,28.6,20.7,10.7,28.9l-13.1,6c-5.9,15.7-13.2,29.3-21.6,40.8
	c-8.5,11.6-17.7,20.5-27,27.1c-5.8,4.1-10.5,6.6-13.6,7.7c-4.4,1.7-9.7,0.3-11.9-3s-0.4-7.3,3.9-8.9c0.2-0.1,0.9-0.4,2.1-1
	c2.2-1.1,4.6-2.6,7.3-4.5c8-5.6,16-13.4,23.6-23.8C697.7,449.3,702.4,441.4,706.6,432.5L706.6,432.5z M537.6,514.5l-2.2-6.5H418.8
	l-1.2,3.5l61.2,73.5L537.6,514.5z M547.2,537l-53.6,64.8l125,151.2L547.2,537z M335.6,758l130-157.5L409.9,533L335.6,758z
	 M317.1,818.1L306.6,850h346l-12.9-39L481.4,619L317.1,818.1z M425.6,476l34-18.4L430.7,442L425.6,476z M482.6,470l-41,20h82
	L482.6,470z M479.9,379L434,406l-2.3,15l48.3,25l42.7-22.1l-3.4-21.8L479.9,379z M499.6,371.4l14,7.6l-2.4-14L499.6,371.4z
	 M527.4,442l-23.8,12.9l28,15.1L527.4,442z M439.6,360l-4,24l24-13.1L439.6,360z M451.6,317l14-7.7l-11.3-6.3L451.6,317z M478.1,322
	l-32.5,20.3l32.5,17.7l29.5-16.1l-0.7-3.9L478.1,322z M480.3,245l-22.4,17.7l-2.3,14.2l24.7,16.1l19.3-12.6l-3.7-23L480.3,245z
	 M502.8,302l-3.2,4.5l4,5.5L502.8,302z M463.3,232l-0.3,2.1l1.1-1.2L463.3,232z M480.8,201l-11.2,10l11.2,10l8.8-7.9l-0.7-4.8
	L480.8,201z M483.6,176.2l-5.3-32.2l-4.7,28.2l7.6,5.8L483.6,176.2z M531.6,135l2.6,15.5l3.9,12.5l60.5-28H531.6z M378.6,418h-82
	l76,38L378.6,418z M366.6,491.6l-0.1,0.9L366.6,491.6L366.6,491.6z M399.3,317l8.3-53h-163L399.3,317z M426.6,134h-67l61.7,34
	L426.6,134z M724.6,259h-173l11.9,53L724.6,259z M657.6,422h-82l5.2,34L657.6,422z"/>
</svg>
