<?xml version="1.0" encoding="utf-8"?>
<!-- Generator: Adobe Illustrator 26.2.1, SVG Export Plug-In . SVG Version: 6.00 Build 0)  -->
<svg version="1.1" id="Layer_1" xmlns="http://www.w3.org/2000/svg" xmlns:xlink="http://www.w3.org/1999/xlink" x="0px" y="0px"
	 viewBox="0 0 960 960" style="enable-background:new 0 0 960 960;" xml:space="preserve">
<path d="M932,846h-37V364.3l23.6,14.9l0.4,0.2c11.7,7,26.9,3.4,34.1-8.2c7.2-11.6,3.8-26.8-7.6-34.2l-0.3-0.2L498.8,57.5
	c-5-5.8-12.4-8.8-19.8-8.5c-7.4-0.3-14.7,2.7-19.8,8.5L12.7,336.9l-0.3,0.2C1,344.5-2.4,359.7,4.8,371.3
	c7.4,11.7,22.8,15.2,34.5,7.9L65,363.1V846H26h-0.4C12,846.2,1,857.3,1,871c0,13.8,11.2,25,25,25h906h0.4
	c13.6-0.2,24.6-11.3,24.6-25C957,857.2,945.8,846,932,846z M855,843H105V338.1l374-234l376,235.2V843z"/>
<path d="M350.7,559.3c3.1,5.3,8.8,8.4,15,8.4h93.5l-21.9,187.9c-0.3,2.5,0.5,5.2,2.2,7.1s4.2,3,6.8,3h0.4c3.4,0,6.5-1.8,8-4.8
	L609.6,472c3-5.4,2.9-11.8-0.3-17.1c-3.1-5.3-8.8-8.4-15-8.4h-93.5l21.9-187.9c0.3-2.5-0.5-5.2-2.2-7.1c-1.7-1.9-4.2-3-6.8-3h-0.4
	c-3.4,0-6.5,1.8-8,4.8l-155,288.9C347.4,547.7,347.6,554,350.7,559.3z"/>
</svg>
