<?xml version="1.0" encoding="utf-8"?>
<!-- Generator: Adobe Illustrator 26.2.1, SVG Export Plug-In . SVG Version: 6.00 Build 0)  -->
<svg version="1.1" id="Layer_1" xmlns="http://www.w3.org/2000/svg" xmlns:xlink="http://www.w3.org/1999/xlink" x="0px" y="0px"
	 viewBox="0 0 960 960" style="enable-background:new 0 0 960 960;" xml:space="preserve">
<style type="text/css">
	.st0{fill-rule:evenodd;clip-rule:evenodd;}
</style>
<g>
	<path d="M541.5,800.7c1.1-15,4.2-29.6,9.1-43.5L358,769.8h-0.6c-0.1,0-0.1,0-0.2,0c-0.1,0-0.3,0-0.4,0c-0.1,0-0.1,0-0.2,0
		c-0.2,0-0.3,0-0.4,0c-0.1,0-0.2,0-0.3,0c-0.2,0-0.4,0-0.6,0c-0.1,0-0.3,0-0.3,0c-0.1,0-0.2,0-0.3,0s-0.3,0-0.3,0
		c-0.1,0-0.2,0-0.3,0H354c-0.2,0-0.3,0-0.3,0h-0.1c-0.1,0-0.1,0-0.2,0h-0.1c-0.2,0-0.3,0-0.5,0c-0.2-0.1-0.4-0.1-0.6-0.1
		c-0.3,0-0.4-0.1-0.7-0.1l0.4,0.1c-0.2,0-0.4-0.1-0.7-0.1h0.3c-0.2,0-0.4-0.1-0.6-0.1h0.3c-0.2,0-0.4-0.1-0.6-0.1s-0.4-0.1-0.6-0.1
		h0.3c-0.2,0-0.4-0.1-0.6-0.1l0.3,0.1c-0.2,0-0.4-0.1-0.6-0.1h0.3c-0.1,0-0.3,0-0.4-0.1c0,0,0,0,0,0.1l-0.3-0.1
		c-16.1-2.7-29.3-15.4-32.1-32.1l-4.9-29.7h9.2c4.6,0,8.3-3.7,8.3-8.3c0-4.6-3.7-8.3-8.3-8.3h-12l-27.3-162.9h9.6
		c4.6,0,8.3-3.7,8.3-8.3s-3.7-8.3-8.3-8.3h-12.4l-7.1-42.1l1-0.7l55.8-3.6l268.1-0.3v-16.8L328.8,448c-0.2,0-0.3,0-0.5,0l-58.5,3.7
		c-0.2,0-0.3,0-0.4,0l-9.9-59.1h12.2c4.6,0,8.3-3.7,8.3-8.3c0-4.6-3.7-8.3-8.3-8.3h-14.8c-0.1,0-0.2,0-0.3,0l-39.8-237.5h11.3
		c4.6,0,8.3-3.7,8.3-8.3c0-4.6-3.7-8.3-8.3-8.3h-14.2l-8.6-51.6c-0.3-1.7-0.3-3.4-0.3-5c0-1.1,0.2-2.1,0.3-3.2
		c0-0.2,0.1-0.3,0.1-0.5c0.1-0.3,0.1-0.4,0.2-0.7c0-0.1,0.1-0.3,0.1-0.3c0.1-0.2,0.1-0.4,0.2-0.6s0.2-0.3,0.2-0.6c0,0,0,0,0,0.1
		l0.1-0.2c0.1-0.3,0.2-0.5,0.3-0.7c0.1-0.1,0.1-0.3,0.2-0.3c0.1-0.2,0.2-0.4,0.3-0.6c0.1-0.3,0.2-0.5,0.4-0.8c0,0,0.1-0.1,0.1-0.2
		c0-0.1,0.1-0.2,0.1-0.2s0,0-0.1,0l0.1-0.1c0.1-0.3,0.3-0.4,0.3-0.7c0-0.1,0.1-0.1,0.1-0.2c0.1-0.2,0.2-0.3,0.3-0.4
		c0.1-0.2,0.3-0.4,0.3-0.6c0.1-0.3,0.3-0.4,0.4-0.7c0.3-0.3,0.5-0.8,0.8-1.1c0.3-0.3,0.5-0.7,0.8-1l-0.1,0.1
		c0.1-0.1,0.1-0.2,0.2-0.3c0.1-0.1,0.1-0.1,0.2-0.2l-0.1,0.2c0.1-0.1,0.2-0.2,0.3-0.3l-0.1,0.2c0.1-0.1,0.1-0.1,0.2-0.2l0.1-0.1
		c0.3-0.3,0.6-0.6,1-1c0,0,0.1-0.1,0.2-0.2l0.3-0.3l0.2-0.2c0.1-0.1,0.1-0.1,0.2-0.2c0.4-0.3,0.9-0.8,1.4-1.1
		c0.1-0.1,0.2-0.1,0.3-0.2c0.1-0.1,0.2-0.1,0.3-0.2c0.2-0.2,0.4-0.3,0.6-0.4l-0.2,0.1c0.1-0.1,0.2-0.1,0.3-0.2l-0.1,0.1
		c0.1-0.1,0.2-0.1,0.3-0.2l-0.2,0.2c0.1-0.1,0.2-0.1,0.3-0.2l-0.1,0.1c0.1-0.1,0.2-0.1,0.3-0.2l-0.2,0.2c0.1-0.1,0.2-0.1,0.3-0.2
		l-0.1,0.1c0.1-0.1,0.2-0.1,0.3-0.2c0.1-0.1,0.2-0.1,0.3-0.2c0,0,0.1-0.1,0.2-0.1c0.3-0.2,0.5-0.3,0.8-0.4c0.1,0,0.1-0.1,0.2-0.1
		c0.1-0.1,0.3-0.2,0.4-0.3c0.1,0,0.2-0.1,0.3-0.1c0.2-0.1,0.3-0.2,0.5-0.3c0.1-0.1,0.2-0.1,0.3-0.1c0.1,0,0.2-0.1,0.3-0.1
		c0,0,0,0,0.1,0c0,0,0.1,0,0.1-0.1c0.1,0,0.2-0.1,0.3-0.1l-0.1,0.1c0.1,0,0.2-0.1,0.3-0.1c0.1,0,0.1-0.1,0.3-0.1
		c0.1,0,0.2-0.1,0.3-0.1l0.3-0.1c0.1,0,0.2-0.1,0.3-0.1h-0.1h-0.1c0.1,0,0.3-0.1,0.3-0.1H221c0.1,0,0.2-0.1,0.3-0.1c0,0,0.1,0,0.1,0
		s0.1-0.1,0.2-0.1c0.4-0.1,0.8-0.2,1.2-0.3c0.3-0.1,0.6-0.1,0.9-0.2h-0.2c0.1-0.1,0.3-0.1,0.3-0.1c0.2,0,0.3-0.1,0.5-0.1
		c0,0,0.1,0,0.2,0c1.3-0.2,2.7-0.3,4.1-0.2l36.2,1.9l0.5-0.1h0.5v0.1l163.7,8.5l3.8,12.5c1.3,4.4,5.9,6.9,10.3,5.6
		c4.4-1.3,6.9-5.9,5.6-10.3l-2-6.9L638,64.5c2.3,0.1,4.5,0.4,6.8,1c0.3,0,0.4,0.1,0.7,0.2c0.3,0.1,0.5,0.2,0.8,0.3
		c-0.1,0-0.2-0.1-0.2-0.1l0.2,0.1h-0.1c0.2,0.1,0.3,0.1,0.4,0.2l-0.3-0.1c0.1,0.1,0.3,0.1,0.4,0.2h-0.1c0.2,0.1,0.3,0.1,0.4,0.2
		c0.3,0.1,0.5,0.2,0.8,0.3l-0.2-0.1c0.1,0,0.2,0.1,0.2,0.1s0,0,0-0.1l0.1,0.1c0.3,0.1,0.6,0.3,0.9,0.3l0.1,0.1
		c0.3,0.1,0.5,0.3,0.8,0.3l-0.2-0.1c0.2,0.1,0.3,0.1,0.4,0.2c0.1,0,0.2,0,0.2,0.1l-0.3-0.6c0.1,0,0.1,0.1,0.2,0.1s0.1,0.1,0.2,0.1
		h0.1c0.1,0,0.1,0,0.2,0.1c0.1,0.1,0.2,0.1,0.3,0.2h0.1c0.1,0,0.2,0.1,0.3,0.2c0.1,0,0.2,0.1,0.3,0.1s0.2,0.1,0.3,0.2
		c0.1,0,0.3,0.1,0.3,0.2l-0.2-0.1c0.1,0.1,0.2,0.2,0.3,0.2s0.2,0.1,0.3,0.2c0.2,0.1,0.3,0.1,0.3,0.2h-0.1c0,0,0.1,0,0.1,0
		c0,0,0,0,0,0l0.1,0.1c0.1,0.1,0.2,0.2,0.3,0.2l-0.1-0.1c0,0,0.1,0,0.2,0.1l-0.1-0.1c0,0,0.1,0,0.1,0.1c0.1,0,0.2,0.1,0.2,0.1
		c0.3,0.2,0.4,0.3,0.7,0.4l-0.2-0.1c0.1,0.1,0.3,0.2,0.3,0.3l-0.2-0.1c0.1,0.1,0.2,0.2,0.3,0.3c0.2,0.1,0.3,0.2,0.3,0.3l-0.2-0.2
		c0.1,0.1,0.3,0.2,0.3,0.3c0.3,0.2,0.4,0.3,0.7,0.5l-0.2-0.2c0.2,0.1,0.3,0.2,0.3,0.3l-0.1-0.1c0.2,0.1,0.3,0.2,0.3,0.3l-0.2-0.2
		c0.1,0.1,0.3,0.2,0.3,0.3c0.2,0.1,0.3,0.2,0.3,0.3c0.1,0.1,0.2,0.2,0.3,0.2l0.1,0.1l0.2,0.2l0.1,0.1c0.2,0.1,0.2,0.2,0.3,0.2
		c0.1,0.2,0.3,0.3,0.3,0.3l-0.3-0.2c0.1,0.1,0.2,0.2,0.3,0.3c0.1,0.1,0.2,0.2,0.3,0.3l-0.2-0.1c0,0,0,0.1,0.1,0.1
		c0.1,0.1,0.1,0.1,0.2,0.2l0.1,0.1c0.3,0.3,0.5,0.5,0.8,0.8c0,0,0,0,0.1,0.1c0.3,0.3,0.6,0.5,0.9,0.9c0.3,0.3,0.4,0.4,0.6,0.7
		l0.1,0.1c0.1,0.1,0.2,0.3,0.3,0.3c0.2,0.2,0.3,0.3,0.4,0.5c0.2,0.3,0.3,0.4,0.5,0.7l-0.1-0.1c0.1,0.1,0.1,0.2,0.2,0.3
		c0.2,0.3,0.3,0.4,0.4,0.6c0.2,0.3,0.3,0.4,0.4,0.7l-0.1-0.1c0,0.2,0.1,0.3,0.2,0.3c0.1,0.1,0.1,0.2,0.2,0.3
		c0.1,0.1,0.2,0.2,0.3,0.3l-0.1-0.1c0,0.2,0.1,0.3,0.2,0.3c0,0.1,0.1,0.1,0.1,0.2c0.2,0.4,0.4,0.8,0.6,1.1l-0.1-0.2
		c0.1,0,0.1,0.1,0.1,0.2c0.1,0,0.1,0.1,0.1,0.2c0,0.1,0.1,0.1,0.1,0.2c0.1,0.1,0.1,0.2,0.2,0.3l0.2,0.3c0.2,0.3,0.3,0.6,0.5,1
		c0.3,0.4,0.4,0.9,0.6,1.3c0.3,0.6,0.5,1.1,0.7,1.7c0.1,0.2,0.1,0.3,0.2,0.4c0.1,0.4,0.3,0.8,0.3,1.2c0,0.1,0.1,0.3,0.1,0.3l0.1,0.4
		c0.1,0.3,0.2,0.5,0.3,0.9c0.1,0.3,0.1,0.5,0.2,0.8l0.1,0.4l9.8,50h-8.4c-4.6,0-8.3,3.7-8.3,8.3c0,4.6,3.7,8.3,8.3,8.3h11.7
		L714.7,330c12.7,0.8,24.9,3.7,36.1,8.4l-50-254.3l-0.1-0.4v-0.3l-0.2-0.9c-6.4-28.8-31.3-49.8-60.9-51.3L271.2,12.2h-0.2
		c-1.9-0.3-4-0.4-6-0.3h-0.3l-34-1.7c-21-1-40.1,9.5-50.8,26.2l-0.4,0.6l-0.3,0.1l-0.8,0.3c-25.2,9.5-40.2,35.7-35.7,62.3l3.2,18.6
		l-0.1,0.2c-5.8,8.2-9.5,18-10.2,28.6l-0.1,0.8c-0.3,4.4-0.1,8.9,0.7,13.2l96.1,568.5c0,0,2.3,31.7,27.6,29.7
		c5.3,20.1,10,22.5,10,22.5l0.3,0.3c14.2,14.5,34.2,22.8,55.5,21.9l21.5-1h0.3c4.2,0.4,8.2,0.5,12.4,0.3l16.6-1l3.4,24.1
		c1.5,11,11.7,18.6,22.7,17.1l8.8-1.2c11-1.5,18.7-11.6,17.1-22.7l-3-20.6l5.2-0.3l3.2,23c1.5,11,11.7,18.6,22.7,17.1l8.8-1.2
		c11-1.5,18.7-11.7,17.1-22.7l-2.8-19.4l5.8-0.3l3.3,23.3c1.5,11,11.7,18.6,22.7,17.1l8.8-1.2c11-1.5,18.7-11.6,17.1-22.7l-2.8-19.8
		l5.6-0.3L541.5,800.7z M176,94c-1.6-10,3.3-19.8,12-24.5l0.3-0.1c0.1,1.2,0.3,2.5,0.4,3.7l65,388.5L239.2,472L176,94z M291.6,755.4
		c0,0-4.6-2.7-9.9-32.6c-5.3-29.9-5.8-32-5.8-32l-33.6-201.1c0.9-0.2,1.8-0.6,2.7-1.2l12-8.5l35.5,212c5.6,31.7,9.9,54.9,10.2,56.8
		c2.9,8.1,7.4,15.3,13,20.9C306.1,768.1,297.5,762.9,291.6,755.4z"/>
	<path d="M484.4,232.7c-51.9,7.3-88.3,56.1-81,108.9c2,14.8,7.3,26.2,15.1,38l163-0.7c9-17.4,13-43.1,10.2-64
		C584.3,262.1,536.3,225.3,484.4,232.7z"/>
</g>
<g transform="translate(89.598000, 15.598000)">
	<path id="Stroke-16" d="M689.3,425.4c0-39.2-32-71.2-71-71.2c-39.1,0-71,32-71,71.2V692c-34.6,23.4-55.9,62.6-55.9,105.3
		c0,70.2,56.8,127.1,127.1,127.1c70.1,0,127.1-56.9,127.1-127.1c0-42.9-21.3-81.9-55.9-105.3V425.4H689.3z M663.1,699.1
		c0,4.6,2.4,8.9,6.4,11.3c30.5,18.1,49.5,50.8,49.5,86.8c0,55.7-45.1,100.8-100.7,100.8c-55.7,0-100.7-45.1-100.7-100.8
		c0-36.1,19-68.7,49.5-86.8c4-2.4,6.4-6.6,6.4-11.3V425.3c0-24.6,20.2-44.8,44.8-44.8s44.8,20.2,44.8,44.8V699.1z"/>
	<path id="Fill-18" class="st0" d="M638,724.7V560.2h-40.1v164.5c-32.7,8.8-56.7,38.5-56.7,73.9c0,42.3,34.4,76.5,76.8,76.5
		c42.4,0,76.8-34.3,76.8-76.5C694.7,763.2,670.6,733.4,638,724.7"/>
</g>
</svg>
