<?xml version="1.0" encoding="utf-8"?>
<!-- Generator: Adobe Illustrator 26.2.1, SVG Export Plug-In . SVG Version: 6.00 Build 0)  -->
<svg version="1.1" id="Layer_1" xmlns="http://www.w3.org/2000/svg" xmlns:xlink="http://www.w3.org/1999/xlink" x="0px" y="0px"
	 viewBox="0 0 960 960" style="enable-background:new 0 0 960 960;" xml:space="preserve">
<path d="M876.8,812.9c-0.2-2.8-0.6-5.5-1.1-8.3L734.3,85.4l-0.1-0.5v-0.3l-0.2-1c-7.4-33.2-36.1-57.4-70.1-59.1L239.6,2.5h-0.2
	c-2.2-0.4-4.6-0.5-6.9-0.4h-0.4l-39.2-2c-24.2-1.2-46.2,10.9-58.5,30.2l-0.5,0.7l-0.3,0.1l-0.9,0.3c-29,11-46.3,41.1-41.1,71.8
	l3.7,21.4l-0.1,0.2c-6.7,9.5-10.9,20.7-11.8,32.9l-0.1,0.9c-0.3,5.1-0.1,10.2,0.8,15.2l110.7,654.8c0,0,2.7,36.5,31.8,34.2
	c6.1,23.1,11.5,25.9,11.5,25.9l0.4,0.4c16.3,16.7,39.4,26.3,63.9,25.2l24.8-1.1h0.3c4.8,0.5,9.5,0.6,14.3,0.3l19.1-1.2l3.9,27.8
	c1.7,12.7,13.5,21.4,26.1,19.7l10.1-1.4c12.7-1.7,21.5-13.4,19.7-26.1l-3.4-23.7l6-0.4l3.7,26.5c1.7,12.7,13.5,21.4,26.1,19.7
	l10.1-1.4c12.7-1.7,21.5-13.5,19.7-26.1l-3.2-22.3l6.7-0.4l3.8,26.8c1.7,12.7,13.5,21.4,26.1,19.7l10.1-1.4
	c12.7-1.7,21.5-13.4,19.7-26.1l-3.2-22.8l6.4-0.4l3.8,26.5c1.7,12.7,13.5,21.4,26.1,19.7l10.1-1.4c12.7-1.7,21.5-13.4,19.7-26.1
	l-3.2-22.3l73.9-4.9l4.3,27.9c1.7,12.7,13.5,21.4,26.1,19.7l45.9-3.4c12.7-1.7,21.5-13.4,19.7-26.1l-3.4-24.2l43.5-2.9
	C851.9,880,879.2,849,876.8,812.9z M163.4,63.5c0-1.3,0.2-2.4,0.4-3.7c0-0.2,0.1-0.4,0.1-0.6c0.1-0.3,0.1-0.5,0.2-0.8
	c0-0.1,0.1-0.3,0.1-0.4c0.1-0.2,0.1-0.5,0.2-0.7s0.2-0.4,0.2-0.7c0,0,0,0,0,0.1l0.1-0.2c0.1-0.3,0.2-0.6,0.3-0.8
	c0.1-0.1,0.1-0.3,0.2-0.4c0.1-0.2,0.2-0.5,0.3-0.7c0.2-0.4,0.3-0.7,0.5-1.1l-0.1,0.2c0,0,0.1-0.1,0.1-0.2s0.1-0.2,0.1-0.2s0,0-0.1,0
	l0.1-0.1c0.1-0.3,0.3-0.5,0.4-0.8c0-0.1,0.1-0.1,0.1-0.2c0.1-0.2,0.2-0.3,0.3-0.5c0.1-0.2,0.3-0.5,0.4-0.7c0.1-0.3,0.3-0.5,0.5-0.8
	c0.3-0.4,0.6-0.9,0.9-1.3c0.3-0.4,0.6-0.8,0.9-1.2l-0.1,0.1c0.1-0.1,0.1-0.2,0.2-0.3c0.1-0.1,0.1-0.1,0.2-0.2l-0.1,0.2
	c0.1-0.1,0.2-0.2,0.3-0.3l-0.1,0.2c0.1-0.1,0.1-0.1,0.2-0.2l0.1-0.1c0.4-0.3,0.7-0.7,1.1-1.1c0,0,0.1-0.1,0.2-0.2l0.3-0.3l0.2-0.2
	c0.1-0.1,0.1-0.1,0.2-0.2c0.5-0.4,1-0.9,1.6-1.3c0.1-0.1,0.1-0.1,0.2-0.2l-0.2,0.2c0.1-0.1,0.2-0.1,0.3-0.2c0.1-0.1,0.2-0.1,0.3-0.2
	c0.2-0.2,0.5-0.3,0.7-0.5l-0.2,0.1c0.1-0.1,0.2-0.1,0.3-0.2l-0.1,0.1c0.1-0.1,0.2-0.1,0.3-0.2l-0.2,0.2c0.1-0.1,0.2-0.1,0.3-0.2
	l-0.1,0.1c0.1-0.1,0.2-0.1,0.3-0.2l-0.2,0.2c0.1-0.1,0.2-0.1,0.3-0.2l-0.1,0.1c0.1-0.1,0.2-0.1,0.3-0.2c0.1-0.1,0.2-0.1,0.3-0.2
	l-0.1,0.1c0.1-0.1,0.2-0.1,0.3-0.2l-0.2,0.1c0,0,0.1-0.1,0.2-0.1c0.3-0.2,0.6-0.3,0.9-0.5c0.1,0,0.1-0.1,0.2-0.1
	c0.1-0.1,0.3-0.2,0.5-0.3c0.1,0,0.2-0.1,0.3-0.1c0.2-0.1,0.4-0.2,0.6-0.3c0.1-0.1,0.2-0.1,0.3-0.1l0,0c0.1,0,0.2-0.1,0.3-0.1h-0.1
	c0.1,0,0.1,0,0.2,0c0,0,0.1,0,0.1-0.1c0.1,0,0.2-0.1,0.3-0.1l-0.1,0.1c0.1,0,0.2-0.1,0.3-0.1c0.1,0,0.1-0.1,0.3-0.1
	c0.1,0,0.2-0.1,0.3-0.1l0.3-0.1c0.1,0,0.2-0.1,0.3-0.1h-0.1h-0.1c0.1,0,0.3-0.1,0.4-0.1h-0.1c0.1,0,0.2-0.1,0.3-0.1h-0.1
	c0.1,0,0.2,0,0.2,0s0.1-0.1,0.2-0.1c0.5-0.1,0.9-0.2,1.4-0.3c0.3-0.1,0.7-0.1,1-0.2h-0.2c0.1-0.1,0.3-0.1,0.4-0.1
	c0.2,0,0.4-0.1,0.6-0.1c0,0,0.1,0,0.2,0c1.5-0.2,3.1-0.3,4.7-0.2l41.7,2.2l0.6-0.1h0.6v0.1l188.6,9.8l4.4,14.4
	c1.5,5.1,6.8,8,11.9,6.4c5.1-1.5,8-6.8,6.4-11.9l-2.3-7.9L662,62.8c2.7,0.1,5.2,0.5,7.8,1.2c0.3,0,0.5,0.1,0.8,0.2s0.6,0.2,0.9,0.3
	c-0.1,0-0.2-0.1-0.2-0.1l0.2,0.1h-0.1c0.2,0.1,0.3,0.1,0.5,0.2l-0.4-0.1c0.1,0.1,0.3,0.1,0.5,0.2h-0.1c0.2,0.1,0.3,0.1,0.5,0.2
	c0.3,0.1,0.6,0.2,0.9,0.3l-0.2-0.1c0.1,0,0.2,0.1,0.2,0.1s0,0,0-0.1l0.1,0.1c0.3,0.1,0.7,0.3,1,0.4l-0.3-0.1
	c0.1,0.1,0.2,0.1,0.3,0.2c0,0,0,0,0-0.1l0.1,0.1c0.3,0.1,0.6,0.3,0.9,0.4l-0.2-0.1c0.2,0.1,0.3,0.1,0.5,0.2c0.1,0,0.2,0,0.2,0.1
	l-0.4-0.7c0.1,0,0.1,0.1,0.2,0.1s0.1,0.1,0.2,0.1h0.1c0.1,0,0.1,0,0.2,0.1s0.2,0.1,0.3,0.2h0.1c0.1,0,0.2,0.1,0.3,0.2
	c0.1,0,0.2,0.1,0.3,0.1c0.1,0,0.2,0.1,0.3,0.2c0.1,0,0.3,0.1,0.4,0.2l-0.2-0.1c0.1,0.1,0.2,0.2,0.3,0.2c0.1,0,0.2,0.1,0.3,0.2
	c0.2,0.1,0.3,0.1,0.4,0.2h-0.1c0,0,0.1,0,0.2,0.1c0,0-0.1,0-0.1-0.1l0.1,0.1l0,0c0.1,0.1,0.2,0.2,0.3,0.2l-0.1-0.1
	c0,0,0.1,0,0.2,0.1l-0.1-0.1c0,0,0.1,0,0.1,0.1c0.1,0,0.2,0.1,0.2,0.1c0.3,0.2,0.5,0.3,0.8,0.5l-0.2-0.1c0.1,0.1,0.3,0.2,0.4,0.3
	l-0.2-0.1c0.1,0.1,0.2,0.2,0.3,0.3l0,0l0,0c0.2,0.1,0.3,0.2,0.4,0.3l-0.2-0.2c0.1,0.1,0.3,0.2,0.4,0.3c0.3,0.2,0.5,0.4,0.8,0.6
	l-0.2-0.2c0.2,0.1,0.3,0.2,0.4,0.3l-0.1-0.1c0.2,0.1,0.3,0.2,0.4,0.3l-0.2-0.2c0.1,0.1,0.3,0.2,0.4,0.3c0.2,0.1,0.3,0.2,0.4,0.3
	c0.1,0.1,0.2,0.2,0.3,0.2l-0.1-0.1l0.2,0.2l0.2,0.2l0.1,0.1c0.2,0.1,0.2,0.2,0.3,0.2l0,0l0.1,0.1c0,0,0,0-0.1-0.1
	c0.1,0.2,0.3,0.3,0.4,0.4l-0.3-0.2c0.1,0.1,0.2,0.2,0.3,0.3c0.1,0.1,0.2,0.2,0.3,0.3l-0.3-0.2c0.1,0,0.1,0.1,0.2,0.2
	c0.1,0.1,0.1,0.1,0.2,0.2l0.1,0.1c0.3,0.3,0.6,0.6,0.9,0.9c0,0,0,0,0.1,0.1c0.3,0.3,0.7,0.6,1,1c0.3,0.3,0.5,0.5,0.7,0.8l0.1,0.1
	c0.1,0.1,0.2,0.3,0.3,0.4c0-0.1-0.1-0.1-0.1-0.2l0.1,0.2c0.2,0.2,0.3,0.4,0.5,0.6c0.2,0.3,0.4,0.5,0.6,0.8l-0.1-0.1
	c0.1,0.1,0.1,0.2,0.2,0.3c0.2,0.3,0.3,0.5,0.5,0.7c0.2,0.3,0.3,0.5,0.5,0.8l-0.1-0.1c0,0.2,0.1,0.3,0.2,0.4c0.1,0.1,0.1,0.2,0.2,0.3
	s0.2,0.2,0.3,0.4l-0.1-0.1c0,0.2,0.1,0.3,0.2,0.4c0,0.1,0.1,0.1,0.1,0.2c0.2,0.5,0.5,0.9,0.7,1.3l-0.1-0.2c0.1,0,0.1,0.1,0.1,0.2
	c0.1,0,0.1,0.1,0.1,0.2s0.1,0.1,0.1,0.2c0.1,0.1,0.1,0.2,0.2,0.3l0.2,0.3c0.2,0.3,0.4,0.7,0.6,1.1c0.3,0.5,0.5,1,0.7,1.5
	c0.3,0.7,0.6,1.3,0.8,2c0.1,0.2,0.1,0.3,0.2,0.5c0.1,0.5,0.3,0.9,0.4,1.4c0,0.1,0.1,0.3,0.1,0.4l0.1,0.5c0.1,0.3,0.2,0.6,0.3,1
	c0.1,0.3,0.1,0.6,0.2,0.9l0.1,0.5l11.3,57.6h-9.7c-5.3,0-9.6,4.3-9.6,9.6c0,5.3,4.3,9.6,9.6,9.6h13.5L760.9,422h-6.6
	c-5.3,0-9.6,4.3-9.6,9.6s4.3,9.6,9.6,9.6h10.5l13.1,65.2l-46.6-2.3c-0.2,0-0.3,0-0.5,0l-424.9,0.4c-0.2,0-0.4,0-0.6,0l-67.4,4.3
	c-0.2,0-0.3,0-0.5,0l-11.4-68.1h14.1c5.3,0,9.6-4.3,9.6-9.6s-4.3-9.6-9.6-9.6h-17c-0.1,0-0.2,0-0.3,0l-45.8-273.6H190
	c5.3,0,9.6-4.3,9.6-9.6c0-5.3-4.3-9.6-9.6-9.6h-16.4l-9.9-59.4C163.4,67.3,163.3,65.4,163.4,63.5z M129.9,96.8
	c-1.9-11.5,3.8-22.8,13.8-28.2l0.3-0.1c0.1,1.4,0.3,2.9,0.5,4.3l74.9,447.5l-16.7,11.9L129.9,96.8z M263,858.6
	c0,0-5.3-3.1-11.4-37.6c-6.1-34.4-6.7-36.9-6.7-36.9l-38.7-231.6c1-0.2,2.1-0.7,3.1-1.4l13.8-9.8l40.9,244.2
	c6.4,36.5,11.4,63.2,11.8,65.4c3.3,9.3,8.5,17.6,15,24.1C279.7,873.2,269.8,867.2,263,858.6z M812.9,844.2l-221.6,14.6l-2.4-18.1
	c-0.7-5.2-5.6-8.9-10.8-8.2c-5.2,0.7-8.9,5.6-8.2,10.8l2.3,16.6l-232.7,15.3h-0.7c-0.1,0-0.1,0-0.2,0c-0.1,0-0.3,0-0.5,0
	c-0.1,0-0.1,0-0.2,0c-0.2,0-0.3,0-0.5,0c-0.1,0-0.2,0-0.3,0c-0.2,0-0.5,0-0.7,0c-0.1,0-0.3,0-0.4,0l0,0c-0.1,0-0.2,0-0.3,0
	c-0.1,0-0.3,0-0.4,0c-0.1,0-0.2,0-0.3,0h-0.1c-0.2,0-0.3,0-0.4,0h-0.1c-0.1,0-0.1,0-0.2,0h-0.1c-0.2,0-0.4,0-0.6,0
	c-0.2-0.1-0.5-0.1-0.7-0.1c-0.3,0-0.5-0.1-0.8-0.1l0.5,0.1c-0.2,0-0.5-0.1-0.8-0.1h0.3c-0.2,0-0.5-0.1-0.7-0.1h0.4
	c-0.2,0-0.5-0.1-0.7-0.1c-0.2,0-0.5-0.1-0.7-0.1h0.3c-0.2,0-0.5-0.1-0.7-0.1l0.4,0.1c-0.2,0-0.5-0.1-0.7-0.1h0.3
	c-0.2,0-0.4,0-0.5-0.1c0.1,0,0.1,0,0.1,0.1l-0.4-0.1c-18.6-3.1-33.8-17.7-37-37l-5.7-34.2h10.6c5.3,0,9.6-4.3,9.6-9.6
	s-4.3-9.6-9.6-9.6h-13.8l-31.4-187.6h11.1c5.3,0,9.6-4.3,9.6-9.6c0-5.3-4.3-9.6-9.6-9.6h-14.3l-8.2-48.5l1.2-0.8l64.3-4.1l424.4-0.4
	l50.3,3.1c0.3,0,0.5,0,0.8,0l8.5,42.9h-8.7c-5.3,0-9.6,4.3-9.6,9.6s4.3,9.6,9.6,9.6h12.5l34.2,173.8h-8.4c-5.3,0-9.6,4.3-9.6,9.6
	s4.3,9.6,9.6,9.6h12.1l6,30.5c0.2,1.1,0.3,2.2,0.4,3.4v0.4C838.8,830.6,827.6,843.2,812.9,844.2z M391.8,381.9
	c-8.4-60.8,33.5-117,93.3-125.4c59.8-8.5,115.1,33.9,123.5,94.7c3.3,24.1-1.3,53.7-11.7,73.7l-187.7,0.8
	C400.2,412.1,394.1,399,391.8,381.9z"/>
</svg>
