<?xml version="1.0" encoding="utf-8"?>
<!-- Generator: Adobe Illustrator 26.2.1, SVG Export Plug-In . SVG Version: 6.00 Build 0)  -->
<svg version="1.1" id="Layer_1" xmlns="http://www.w3.org/2000/svg" xmlns:xlink="http://www.w3.org/1999/xlink" x="0px" y="0px"
	 viewBox="0 0 960 960" style="enable-background:new 0 0 960 960;" xml:space="preserve">
<path d="M933,853.5h-37V371.8l23.6,14.9l0.4,0.2c11.7,7,26.9,3.4,34.1-8.2c7.2-11.6,3.8-26.8-7.6-34.2l-0.3-0.2L499.8,65
	c-5-5.8-12.4-8.8-19.8-8.5c-7.4-0.3-14.7,2.7-19.8,8.5L13.7,344.4l-0.3,0.2C2,352-1.4,367.2,5.8,378.8c7.4,11.7,22.8,15.2,34.5,7.9
	L66,370.6v482.9H27h-0.4C13,853.7,2,864.8,2,878.5c0,13.8,11.2,25,25,25h906h0.4c13.6-0.2,24.6-11.3,24.6-25
	C958,864.7,946.8,853.5,933,853.5z M856,850.5H106V345.6l374-234l376,235.2V850.5z"/>
<g>
	<path d="M464.5,309.3c-62.3,11.4-97.5,77.7-71.4,134.7c12.4,27.1,34.9,46.1,64.3,53.4c12.4,3.3,33.4,3.3,45.8,0
		c34.4-8.9,59-32.7,69.4-67.3c2.5-8.9,3.3-12.9,3.3-25.1c0-9.6-0.5-17.2-2-22.5c-8.9-35.7-34.4-61.8-70.6-71.6
		C495.6,308.7,472.6,307.5,464.5,309.3z"/>
	<path d="M366.5,509.7c-16.2,5.1-25.8,17.7-26.8,34.4c-0.5,7.8,1.3,18,15.2,86.8c18,88.1,17.7,87.6,31.4,101.3
		c8.6,8.6,18.7,14.7,29.6,17.5c10.4,2.5,118.5,2.5,128.8,0c10.6-2.8,20.8-8.9,29.6-17.5c13.4-13.2,13.4-13.2,30.9-98.2
		c13.4-65.6,15.2-75.9,15.2-86.6c0-10.9-0.3-12.7-3-18.2c-3.8-7.3-11.1-14.2-19-17.7c-5.1-2.3-7.6-2.5-30.1-2.5h-24.6l-31.4,54.4
		c-17.2,30.1-31.6,54.7-32.1,54.7c-0.3,0-14.9-24.6-32.1-54.7l-31.1-54.9l-22.5-0.3C378.7,508.2,370.1,508.5,366.5,509.7z"/>
</g>
</svg>
