<?xml version="1.0" encoding="utf-8"?>
<!-- Generator: Adobe Illustrator 26.2.1, SVG Export Plug-In . SVG Version: 6.00 Build 0)  -->
<svg version="1.1" id="Layer_1" xmlns="http://www.w3.org/2000/svg" xmlns:xlink="http://www.w3.org/1999/xlink" x="0px" y="0px"
	 viewBox="0 0 960 960" style="enable-background:new 0 0 960 960;" xml:space="preserve">
<path d="M952,803.1L803.5,548.4l-22.1,41.4l9.7,16.6l-19.2,1.1l-11.1,20.7l41.6-2.4l46.3,79.6l-114,9.8l-15-26.5
	c-5.7,2.8-12.1,4.4-18.7,4.4h-0.4c-0.5,0-0.9,0-1.4,0l13.6,24l-135.7,11.7l-45.9-87.2l129-7.5l4.9-41.7l-34.1-60.3l41.4-1.8
	l2.3-20.1l-54.8,2.4l-30.7-54.1c-11.2-3.9-20.8-11.6-27.1-22.2c-8.3-13.7-9.6-30.1-4-44.9l-518.6,7.8c-29.1,0.4-48,30.9-35.5,57.2
	l229.2,480.9c7.3,15.4,23.7,24.5,40.7,22.5l647.1-74.9c19.3-2.3,34.2-18.1,35.3-37.5l1.2-21.8C957.8,817.7,955.9,809.9,952,803.1z
	 M859.9,724.5l51.1,87.6L797,825l-51.4-90.6L859.9,724.5z M723.7,736.3l51.8,91.3l-138.3,15.6l-50-95.1L723.7,736.3z M615.8,845.5
	l-147.7,16.7l-49.6-99.6l147-12.7L615.8,845.5z M555.4,730.7l-146.5,12.6l-45.8-91.9l146.1-8.5L555.4,730.7z M331.6,633.3
	l-161.5,9.4c-0.7,0.1-1.5,0.2-2.2,0.4l-42.4-89l163.2-7.1L331.6,633.3z M310.6,546l144.4-6.3l44,83.8L353.4,632L310.6,546z
	 M341.4,652.7l46,92.6l-164.1,14.1l-46.2-97.1L341.4,652.7z M654.5,614.4l-133.6,7.8L477,538.8l131.4-5.7L654.5,614.4z M550.8,431.4
	l46.6,82l-130.6,5.7l-45.2-85.8L550.8,431.4z M399.2,433.7l45.5,86.5l-143.9,6.2l-45.1-90.6L399.2,433.7z M233.5,436.2l45.4,91.1
	l-162.7,7.1l-45.7-95.8L233.5,436.2z M265.2,911.8L40,439l8.5-0.1l106.4,223.4l112.4,236c0.2,0.3,0.4,0.7,0.6,1L265.2,911.8z
	 M282.2,882.9l-28.8-60.5l-20.9-43.8L397,764.4l50,100.2l-164.6,18.6L282.2,882.9z M916.2,845.1l-631.8,73.1l3.3-15.4L917,831.6
	L916.2,845.1z"/>
<path d="M890.8,298c-3.7-6.2-10.2-9.9-17.4-9.9H764.1l25.6-219.8c0.3-3.1-0.6-6.1-2.6-8.3s-4.9-3.6-7.9-3.6h-0.4
	c-4,0-7.5,2.1-9.4,5.6L588.5,400.1c-3.4,6.4-3.3,13.8,0.5,20.1c3.7,6.2,10.2,9.9,17.4,9.9h109.1L690,649.8c-0.3,3.1,0.6,6.1,2.6,8.3
	c2,2.2,4.9,3.6,7.9,3.6h0.4c4,0,7.5-2.1,9.4-5.6L891.1,318C894.6,311.7,894.4,304.2,890.8,298z"/>
</svg>
