<?xml version="1.0" encoding="utf-8"?>
<!-- Generator: Adobe Illustrator 26.2.1, SVG Export Plug-In . SVG Version: 6.00 Build 0)  -->
<svg version="1.1" id="Layer_1" xmlns="http://www.w3.org/2000/svg" xmlns:xlink="http://www.w3.org/1999/xlink" x="0px" y="0px"
	 viewBox="0 0 960 960" style="enable-background:new 0 0 960 960;" xml:space="preserve">
<style type="text/css">
	.st0{fill-rule:evenodd;clip-rule:evenodd;}
</style>
<path d="M801.2,541.2c-12,5.9-24.5,11.1-37.4,15.3l29.1,49.9l-114.3,6.7l-24.4-43.1c-8.3-0.6-16.5-1.5-24.7-2.8l26.8,47.2
	l-133.6,7.8l-43.9-83.4l59.6-2.6c-10.4-5.7-20.4-12-30-18.9l-39.8,1.7l-45.2-85.8l7-0.1c-7.6-12.6-14.3-25.8-20-39.6l-369.2,5.5
	c-29.1,0.4-48,30.9-35.5,57.2l229.2,480.9c7.3,15.4,23.7,24.5,40.7,22.5l647.1-74.9c19.3-2.3,34.2-18.1,35.3-37.5l1.2-21.8
	c0.4-7.8-1.5-15.6-5.4-22.4L801.2,541.2z M912.8,812.1l-114,12.9l-51.4-90.6l114.3-9.9L912.8,812.1z M589,748.1l136.5-11.8
	l51.8,91.3L639,843.2L589,748.1z M617.6,845.5l-147.7,16.7l-49.6-99.6l147-12.7L617.6,845.5z M804.2,625.8l46.3,79.6l-114,9.8
	l-46.9-82.7L804.2,625.8z M667.3,633.8l47.3,83.3l-135.7,11.7L533,641.6L667.3,633.8z M557.2,730.7l-146.5,12.6l-45.8-91.9
	l146.1-8.5L557.2,730.7z M343.2,652.7l46,92.6l-164.1,14.1l-46.2-97.1L343.2,652.7z M171.9,642.7c-0.7,0.1-1.5,0.2-2.2,0.4l-42.4-89
	l163.2-7.1l42.9,86.3L171.9,642.7z M500.8,623.5L355.2,632l-42.8-86l144.4-6.3L500.8,623.5z M401,433.7l45.5,86.5l-143.9,6.2
	l-45.1-90.6L401,433.7z M235.3,436.2l45.4,91.1L118,534.4l-45.7-95.8L235.3,436.2z M267,911.8L41.8,439l8.5-0.1l106.4,223.4
	l112.4,236c0.2,0.3,0.4,0.7,0.6,1L267,911.8z M284,882.9l-28.8-60.5l-20.9-43.8l164.5-14.2l50,100.2l-164.6,18.6L284,882.9z
	 M918,845.1l-631.8,73.1l3.3-15.4l629.3-71.2L918,845.1z"/>
<path class="st0" d="M917.7,289.9c3.2,0,6-2.5,6-5.7s-2.6-5.7-6-5.7H793.1c-0.2-3.9-0.6-7.6-1.1-11.3l122.2-23.8
	c3.2-0.6,5.4-3.7,4.7-7c-0.6-3.2-3.7-5.4-7-4.7l-122.3,23.8c-0.9-3.5-1.9-6.8-3.1-10.1l114.7-48.7c3-1.2,4.4-4.7,3.1-7.7
	c-1.2-3-4.7-4.4-7.7-3.1l-114.6,48.6c-1.6-3.5-3.5-7-5.5-10.3l103.2-69.6c2.7-1.9,3.4-5.5,1.6-8.2c-1.9-2.7-5.5-3.4-8.2-1.6
	L770,214.2c-2.4-3.1-4.7-6.1-7.3-9l88-88c2.4-2.4,2.4-6.1,0-8.3c-2.4-2.4-6.1-2.4-8.3,0l-88,88c-2.9-2.6-5.9-5.1-9-7.3l69.6-103.2
	c1.9-2.7,1.1-6.4-1.6-8.2c-2.7-1.9-6.4-1.1-8.2,1.6l-69.6,103.2c-3.4-2-6.7-3.9-10.3-5.5l48.6-114.6c1.2-3-0.1-6.5-3.1-7.7
	s-6.5,0.1-7.7,3.1L714.2,173c-3.4-1.1-6.7-2.2-10.1-3.1l23.8-122.3c0.6-3.2-1.5-6.4-4.7-7s-6.4,1.5-7,4.7l-23.8,122.2
	c-3.7-0.5-7.5-0.9-11.3-1.1V41.8c0-3.2-2.5-6-5.7-6s-5.7,2.6-5.7,6v124.4c-4.1,0.1-8.2,0.6-12.3,1.1L633.5,45.2
	c-0.6-3.2-3.7-5.4-7-4.7c-3.2,0.6-5.4,3.7-4.7,7l23.8,122.3c-3.7,1-7.5,2.1-11.1,3.4L587.9,57.8c-1.2-3-4.6-4.5-7.7-3.2
	c-3,1.2-4.5,4.6-3.2,7.7l46.7,115.4c-3.2,1.5-6.4,3.2-9.3,5L544.7,79.4c-1.9-2.7-5.5-3.4-8.2-1.6c-2.7,1.9-3.4,5.5-1.6,8.2
	l69.6,103.2c-3.1,2.4-6.1,4.7-9,7.3l-88-88c-2.4-2.4-6.1-2.4-8.3,0c-2.4,2.4-2.4,6.1,0,8.3l88,88c-2.6,2.9-5.1,5.9-7.3,9
	l-103.2-69.6c-2.7-1.9-6.4-1.1-8.2,1.6s-1.1,6.4,1.6,8.2l103.2,69.6c-2,3.4-3.9,6.7-5.5,10.3l-114.6-48.6c-3-1.2-6.5,0.1-7.7,3.1
	s0.1,6.5,3.1,7.7l114.7,48.7c-1.1,3.4-2.2,6.7-3.1,10.1l-122.3-23.8c-3.2-0.6-6.4,1.5-7,4.7c-0.6,3.2,1.5,6.4,4.7,7l122.2,23.8
	c-0.6,4-1,8.1-1.1,12.3h-124c-3.2,0-6,2.5-6,5.7c0,3.2,2.6,5.7,6,5.7h124.5c0.2,3.9,0.6,7.6,1.1,11.3l-122.2,23.8
	c-3.2,0.6-5.4,3.7-4.7,7c0.6,3.2,3.7,5.4,7,4.7l122.3-23.8c1,3.7,2.1,7.5,3.4,11.1l-115.3,46.6c-3,1.2-4.5,4.6-3.2,7.7
	c1.2,3,4.6,4.5,7.7,3.2l115.4-46.7c1.5,3.2,3.2,6.4,5,9.3l-103.2,69.6c-2.7,1.9-3.4,5.5-1.6,8.2c1.7,2.7,5.5,3.4,8.2,1.6l103.2-69.6
	c2.4,3.1,4.7,6.1,7.3,9l-88,88c-2.4,2.4-2.4,6.1,0,8.3c2.4,2.4,6.1,2.4,8.3,0l88-88c2.9,2.6,5.9,5.1,9,7.3l-69.6,103.2
	c-1.9,2.7-1.1,6.4,1.6,8.2c2.7,1.9,6.4,1.1,8.2-1.6L614.7,386c3.4,2,6.7,3.9,10.3,5.5L576.5,506c-1.2,3,0.1,6.5,3.1,7.7
	c3,1.2,6.5-0.1,7.7-3.1L636,396c3.4,1.1,6.7,2.2,10.1,3.1l-23.8,122.3c-0.6,3.2,1.5,6.4,4.7,7c3.2,0.6,6.4-1.5,7-4.7l23.8-122.2
	c4,0.6,8.1,1,12.3,1.1V527c0,3.2,2.5,6,5.7,6s5.7-2.6,5.7-6V402.7c3.9-0.2,7.6-0.6,11.3-1.1l23.8,122.2c0.6,3.2,3.7,5.4,7,4.7
	s5.4-3.7,4.7-7l-23.8-122.3c3.7-1,7.5-2.1,11.1-3.4l46.6,115.3c1.2,3,4.6,4.5,7.7,3.2c3-1.2,4.5-4.6,3.2-7.7l-46.7-115.4
	c3.2-1.5,6.4-3.2,9.3-5l69.6,103.2c1.9,2.7,5.5,3.4,8.2,1.6c2.7-1.7,3.4-5.5,1.6-8.2l-69.6-103.2c3.1-2.4,6.1-4.7,9-7.3l88,88
	c2.4,2.4,6.1,2.4,8.3,0c2.4-2.4,2.4-6.1,0-8.3l-88-88c2.6-2.9,5.1-5.9,7.3-9l103.2,69.6c2.7,1.9,6.4,1.1,8.2-1.6
	c1.9-2.7,1.1-6.4-1.6-8.2L777,345.2c2-3.4,3.9-6.7,5.5-10.3L897,383.4c3,1.2,6.5-0.1,7.7-3.1c1.2-3-0.1-6.5-3.1-7.7l-114.7-48.7
	c1.1-3.4,2.2-6.7,3.1-10.1l122.3,23.8c3.2,0.6,6.4-1.5,7-4.7c0.6-3.2-1.5-6.4-4.7-7l-122.2-23.8c0.6-4,1-8.1,1.1-12.3h124.1V289.9z"
	/>
</svg>
