<?xml version="1.0" encoding="utf-8"?>
<!-- Generator: Adobe Illustrator 26.2.1, SVG Export Plug-In . SVG Version: 6.00 Build 0)  -->
<svg version="1.1" id="Layer_1" xmlns="http://www.w3.org/2000/svg" xmlns:xlink="http://www.w3.org/1999/xlink" x="0px" y="0px"
	 viewBox="0 0 960 960" style="enable-background:new 0 0 960 960;" xml:space="preserve">
<g>
	<path d="M689.2,194c14.5-0.2,28,7.4,35.2,19.9l230.1,395c4,6.8,5.9,14.6,5.4,22.4l-1.2,21.8c-1.1,19.5-16.1,35.3-35.4,37.6
		l-648.9,75.1c-17.1,1.9-33.4-7.1-40.9-22.6L4,261c-12.6-26.4,6.3-56.9,35.7-57.4L689.2,194z M919.5,637.4l-631.1,71.4l-3.3,15.5
		L918.7,651L919.5,637.4z M48.7,243.7l-8.5,0.1L266,717.9l2.7-12.6c-0.2-0.3-0.5-0.7-0.6-1L155.4,467.7L48.7,243.7z M398.1,570
		l-164.9,14.3l20.9,43.9l28.9,60.7l0.1,0.3l165-18.7L398.1,570z M567,555.4l-147.5,12.7l49.8,100l148.1-16.8L567,555.4z
		 M725.6,541.9l-136.9,11.8l50.1,95.3l138.7-15.7L725.6,541.9z M862.2,530.1l-114.7,9.8l51.5,90.9l114.2-12.9L862.2,530.1z
		 M342.3,458l-164.7,9.6l46.4,97.4l164.6-14.2L342.3,458z M510.6,448.2L364,456.7l46,92.1l146.9-12.7L510.6,448.2z M667.3,439.1
		l-134.7,7.8l46,87.4l136.2-11.8L667.3,439.1z M804.6,431l-114.9,6.8l47.1,83l114.3-9.8L804.6,431z M289.5,352l-163.6,7.1l42.6,89.2
		c0.7-0.2,1.5-0.3,2.3-0.3l162-9.4L289.5,352z M456.2,344.8L311.4,351l42.9,86.1l146-8.5L456.2,344.8z M610,338.1l-131.8,5.7
		l44,83.7l134-7.8L610,338.1z M746.9,332.1l-114.3,5l46.1,81.2l114.7-6.7L746.9,332.1z M234.1,240.9l-163.3,2.4l45.7,96.1l163.2-7.1
		L234.1,240.9z M400.3,238.5l-143.9,2.2l45.3,90.8l144.2-6.2L400.3,238.5z M552.3,236.2l-129.5,1.9l45.3,86l131-5.7L552.3,236.2z
		 M689.8,234.2l-114.7,1.7l46.3,81.7l114.1-5L689.8,234.2z"/>
</g>
</svg>
